<svg width="52" height="52" viewBox="0 0 52 52" fill="none" xmlns="http://www.w3.org/2000/svg">
<g id="Group 44655">
<g id="Group 44661">
<rect id="Rectangle 14917" width="52" height="52" rx="12" fill="white"/>
<path id="Vector" d="M20.7492 39C32.4478 39 38.8454 28.9981 38.8454 20.3247C38.8454 20.0407 38.8398 19.7579 38.8274 19.4763C40.0722 18.5468 41.1466 17.3958 42 16.0775C40.8604 16.6003 39.634 16.9523 38.3475 17.1109C39.6607 16.2984 40.6688 15.0129 41.1444 13.4805C39.8959 14.2449 38.53 14.7837 37.1057 15.0738C35.9451 13.7979 34.2928 13 32.4632 13C28.9508 13 26.1026 15.9394 26.1026 19.5627C26.1026 20.0778 26.1585 20.5787 26.2676 21.0594C20.9816 20.7849 16.2943 18.173 13.1573 14.2016C12.5923 15.2033 12.2951 16.3417 12.2961 17.5006C12.2961 19.7778 13.4189 21.7881 15.1264 22.9642C14.1164 22.9323 13.1285 22.6508 12.2459 22.1432C12.245 22.1708 12.245 22.1976 12.245 22.2271C12.245 25.4058 14.4373 28.0598 17.3475 28.6612C16.8009 28.8148 16.2369 28.8924 15.6704 28.8921C15.2613 28.8921 14.8626 28.8506 14.4751 28.7738C15.2848 31.3817 17.6327 33.2795 20.4165 33.3326C18.2396 35.0934 15.4975 36.1421 12.5171 36.1421C12.0101 36.1426 11.5035 36.1122 11 36.0512C13.8148 37.9131 17.1572 38.9995 20.7495 38.9995" fill="#1DA1F2"/>
</g>
</g>
</svg>
