<svg width="27" height="27" viewBox="0 0 27 27" fill="none" xmlns="http://www.w3.org/2000/svg">
<g id="star_FILL1_wght400_GRAD0_opsz48 5">
<path id="Vector" d="M13.4182 20.1928L8.41985 23.2025C8.27653 23.2921 8.12425 23.3324 7.96301 23.3235C7.80178 23.3145 7.65846 23.2653 7.53305 23.1757C7.40765 23.0861 7.31359 22.9697 7.25089 22.8263C7.18819 22.683 7.17475 22.5218 7.21058 22.3426L8.52734 16.6456L4.12022 12.8028C3.9769 12.6774 3.8918 12.5386 3.86493 12.3863C3.83806 12.234 3.84254 12.0862 3.87837 11.9429C3.9142 11.7996 3.99482 11.6787 4.12022 11.5801C4.24563 11.4816 4.39791 11.4234 4.57706 11.4054L10.4084 10.8949L12.6657 5.52033C12.7374 5.35909 12.8449 5.23817 12.9882 5.15755C13.1315 5.07693 13.2748 5.03662 13.4182 5.03662C13.5615 5.03662 13.7048 5.07693 13.8481 5.15755C13.9915 5.23817 14.0989 5.35909 14.1706 5.52033L16.4279 10.8949L22.2593 11.4054C22.4384 11.4234 22.5907 11.4816 22.7161 11.5801C22.8415 11.6787 22.9221 11.7996 22.958 11.9429C22.9938 12.0862 22.9983 12.234 22.9714 12.3863C22.9445 12.5386 22.8594 12.6774 22.7161 12.8028L18.309 16.6456L19.6258 22.3426C19.6616 22.5218 19.6481 22.683 19.5854 22.8263C19.5227 22.9697 19.4287 23.0861 19.3033 23.1757C19.1779 23.2653 19.0346 23.3145 18.8733 23.3235C18.7121 23.3324 18.5598 23.2921 18.4165 23.2025L13.4182 20.1928Z" fill="#FF3D2E"/>
</g>
</svg>
