<svg width="34" height="65" viewBox="0 0 34 65" fill="none" xmlns="http://www.w3.org/2000/svg">
<path id="Vector" d="M13.981 65V57.4663C10.3143 56.8239 7.36059 55.4077 5.11985 53.2177C2.87911 51.0276 1.32223 48.239 0.449219 44.8518L7.25874 42.2237C8.13176 45.2606 9.49948 47.4068 11.3619 48.6624C13.2244 49.918 15.3196 50.5458 17.6476 50.5458C20.2667 50.5458 22.3474 49.9472 23.8897 48.75C25.432 47.5528 26.2032 45.9322 26.2032 43.8881C26.2032 41.6105 25.3884 39.7855 23.7587 38.4131C22.1291 37.0407 19.1318 35.6828 14.7667 34.3396C10.6926 33.1132 7.5934 31.2882 5.46906 28.8646C3.34472 26.4409 2.28255 23.4771 2.28255 19.973C2.28255 16.9362 3.24287 14.2352 5.1635 11.8699C7.08414 9.50472 10.0233 8.0301 13.981 7.44609V0H20.1794V7.44609C22.9148 7.9717 25.3156 9.00831 27.3818 10.5559C29.4479 12.1035 31.0048 14.1914 32.0524 16.8194L25.4175 19.535C24.6027 17.783 23.5114 16.4544 22.1437 15.5492C20.7759 14.644 19.0445 14.1914 16.9492 14.1914C14.563 14.1914 12.7296 14.6732 11.4492 15.6368C10.1688 16.6004 9.52858 17.9582 9.52858 19.7102C9.52858 21.5791 10.227 23.1413 11.6238 24.3969C13.0206 25.6525 16.1926 27.0395 21.1397 28.558C25.2138 29.9012 28.2839 31.7846 30.35 34.2082C32.4162 36.6319 33.4492 39.7417 33.4492 43.5377C33.4492 47.3922 32.3288 50.5166 30.0881 52.9111C27.8474 55.3055 24.5445 56.8531 20.1794 57.5539V65H13.981Z" fill="#1E1D1D"/>
</svg>
