<svg width="52" height="52" viewBox="0 0 52 52" fill="none" xmlns="http://www.w3.org/2000/svg">
<g id="Group 44659">
<g id="Group 44657">
<rect id="Rectangle 14917" width="52" height="52" rx="12" fill="white"/>
</g>
<path id="Vector" d="M27.1425 35.9738L21.1928 35.8653C19.2664 35.8275 17.3353 35.903 15.4467 35.5113C12.5737 34.9262 12.3701 32.057 12.1572 29.6504C11.8637 26.2669 11.9773 22.822 12.5311 19.4668C12.8437 17.5842 14.0741 16.4608 15.9768 16.3386C22.3998 15.8949 28.8655 15.9475 35.2742 16.1545C35.9511 16.1734 36.6326 16.2772 37.3 16.3952C40.5944 16.9709 40.6747 20.2223 40.8883 22.9593C41.1013 25.7246 41.0114 28.5041 40.6043 31.2506C40.2777 33.5246 39.6529 35.4315 37.0159 35.6156C33.7121 35.8563 30.484 36.0501 27.1708 35.9884C27.171 35.9738 27.1519 35.9738 27.1425 35.9738ZM23.6446 30.2167C26.1344 28.7915 28.5767 27.39 31.0522 25.9743C28.5578 24.5491 26.1202 23.1476 23.6446 21.732V30.2167Z" fill="#FF0000"/>
</g>
</svg>
