<svg width="98" height="98" viewBox="0 0 98 98" fill="none" xmlns="http://www.w3.org/2000/svg">
<g id="Icons" clip-path="url(#clip0_634_493)">
<path id="Vector" d="M83.6203 10.63H69.0303C62.5703 10.63 57.2803 15.92 57.2803 22.38V22.93C57.2803 28.11 60.6903 32.53 65.3703 34.08C65.3303 34.2 65.3103 34.34 65.3503 34.5C65.1603 35.27 64.9903 36.04 64.8803 36.83C64.8603 36.96 64.8803 37.08 64.9103 37.19C64.7003 37.97 64.4403 38.74 64.0703 39.48C63.8003 40.01 64.1503 40.49 64.5803 40.62C64.3603 40.88 64.1203 41.12 63.9003 41.38C63.2703 42.15 64.2903 43.23 65.0103 42.49C65.0303 42.46 65.0603 42.44 65.0803 42.42C65.3603 42.68 65.7903 42.76 66.1003 42.39C66.3103 42.13 66.5303 41.88 66.7403 41.62C66.8803 41.6 67.0303 41.54 67.1503 41.41C68.3203 40.18 69.3803 38.88 70.3503 37.49C70.3503 37.49 70.3503 37.49 70.3503 37.48C71.3703 36.58 72.3903 35.68 73.2803 34.67H83.5903C90.0503 34.67 95.3403 29.38 95.3403 22.92V22.37C95.3403 15.91 90.0503 10.62 83.5903 10.62L83.6203 10.63Z" fill="#7DD6EA"/>
<path id="Vector_2" d="M63.91 46.65C63.63 46.65 63.36 46.59 63.1 46.47C62.4 46.15 61.95 45.45 61.95 44.68V36.75C54.45 34.16 48.96 26.73 48.96 18.84C48.96 8.45 57.56 0 68.13 0H78.39C88.84 0 97.34 8.59 97.34 19.15C97.34 29.71 88.84 38.3 78.39 38.3H74.2L65.2 46.16C64.83 46.48 64.37 46.65 63.91 46.65ZM68.13 3.93C59.73 3.93 52.89 10.62 52.89 18.84C52.89 26.41 58.81 31.98 64.39 33.37C65.27 33.59 65.88 34.38 65.88 35.28V40.35L72.17 34.85C72.53 34.54 72.99 34.36 73.46 34.36H78.38C86.66 34.36 93.4 27.53 93.4 19.14C93.4 10.75 86.66 3.92 78.38 3.92H68.12L68.13 3.93Z" fill="#1E1D1D"/>
<g id="Group">
<path id="Vector_3" d="M2.02 97.72C1.01 97.72 0.150001 96.94 0.0600013 95.91C0.0300013 95.57 -0.579998 87.45 2.96 81.82C8.08 73.69 17.33 70.43 17.72 70.3C18.39 70.07 19.14 70.22 19.67 70.69C19.73 70.74 25.83 76.1 32.21 76.1H32.52C38.94 76.1 45.06 70.74 45.12 70.68C45.63 70.23 46.35 70.07 47 70.27C47.4 70.39 56.8 73.34 61.94 81.5C65.47 87.1 65.09 95.42 65.07 95.77C65.01 96.85 64.12 97.7 63.01 97.63C61.93 97.58 61.09 96.65 61.14 95.57C61.14 95.5 61.47 88.13 58.61 83.59C55.14 78.08 49.13 75.29 46.8 74.37C44.61 76.07 38.84 80.02 32.51 80.02H32.2C25.91 80.02 20.21 76.12 18 74.4C15.66 75.41 9.74 78.4 6.27 83.9C3.43 88.41 3.95 95.51 3.96 95.58C4.04 96.66 3.24 97.61 2.16 97.7C2.11 97.7 2.05 97.7 2 97.7L2.02 97.72Z" fill="#1E1D1D"/>
<path id="Vector_4" d="M32.4298 70.6C23.0998 70.6 15.5098 63.01 15.5098 53.68V42.66C15.5098 33.33 23.0998 25.74 32.4298 25.74C41.7598 25.74 49.3498 33.33 49.3498 42.66V53.68C49.3498 63.01 41.7598 70.6 32.4298 70.6ZM32.4298 29.68C25.2698 29.68 19.4498 35.5 19.4498 42.66V53.68C19.4498 60.84 25.2698 66.66 32.4298 66.66C39.5898 66.66 45.4098 60.84 45.4098 53.68V42.66C45.4098 35.5 39.5898 29.68 32.4298 29.68Z" fill="#1E1D1D"/>
<path id="Vector_5" d="M40.2999 44.47C38.3699 44.47 36.1599 43.96 33.2699 42.84C28.1899 40.87 25.7099 42.73 25.5999 42.81C24.7499 43.47 23.5199 43.34 22.8499 42.51C22.1799 41.68 22.2699 40.48 23.0899 39.79C23.2599 39.65 27.2999 36.32 34.6899 39.17C40.4999 41.42 42.2299 40.62 45.5799 38.61C46.5099 38.05 47.7199 38.35 48.2799 39.28C48.8399 40.21 48.5399 41.42 47.6099 41.98C44.9899 43.55 42.8899 44.46 40.2999 44.46V44.47Z" fill="#1E1D1D"/>
</g>
</g>
<defs>
<clipPath id="clip0_634_493">
<rect width="97.33" height="97.72" fill="white"/>
</clipPath>
</defs>
</svg>
