<svg width="70" height="49" viewBox="0 0 70 49" fill="none" xmlns="http://www.w3.org/2000/svg">
<path id="Vector" d="M45.446 49C38.7418 49 33.0529 46.6141 28.3795 41.8423C23.7061 37.0706 21.3694 31.2979 21.3694 24.5244C21.3694 17.6927 23.7061 11.8974 28.3795 7.13844C33.0529 2.37948 38.7418 0 45.446 0C52.109 0 57.7752 2.37654 62.4448 7.12961C67.1144 11.8827 69.4492 17.6824 69.4492 24.5288C69.4492 31.3172 67.1144 37.0929 62.4448 41.8557C57.7752 46.6186 52.109 49 45.446 49ZM51.8322 35.5344L56.3099 30.971L48.6758 23.1481L48.6024 12.6427H42.2162V25.8092L51.8322 35.5344ZM3.38539 15.7847V9.27634H18.4333V15.7847H3.38539ZM0.449219 27.7542V21.2458H18.4333V27.7542H0.449219ZM3.38539 39.7237V33.2153H18.4333V39.7237H3.38539Z" fill="#1E1D1D"/>
</svg>
