<svg width="73" height="38" viewBox="0 0 73 38" fill="none" xmlns="http://www.w3.org/2000/svg">
<path id="Vector" d="M31.3273 19.0361C29.6596 19.0361 28.3158 18.4472 27.296 17.2695C26.2762 16.0917 25.9126 14.7097 26.2053 13.1233L27.0834 7.78748C27.4736 5.52815 28.5476 3.6654 30.3052 2.19924C32.0629 0.73308 34.1045 0 36.43 0C38.8067 0 40.8796 0.73308 42.6489 2.19924C44.4182 3.6654 45.498 5.52815 45.8882 7.78748L46.7663 13.1233C47.059 14.7097 46.6908 16.0917 45.6618 17.2695C44.6329 18.4472 43.3181 19.0361 41.7175 19.0361H31.3273ZM11.4064 24.6588C10.2967 24.7079 9.34312 24.4969 8.54556 24.0258C7.748 23.5547 7.23946 22.8245 7.01995 21.8352C6.88337 21.4593 6.86385 21.055 6.96141 20.6224C7.05897 20.1898 7.18093 19.7731 7.32727 19.3726C7.32727 19.4647 7.29475 19.3662 7.22973 19.0772C7.19719 19.0017 6.99068 18.4578 6.61019 17.4455C6.50288 16.9308 6.54678 16.4183 6.7419 15.9079C6.93702 15.3975 7.22971 14.95 7.61995 14.5655L7.87605 14.4213C7.96117 13.5026 8.3069 12.7561 8.91324 12.1819C9.51954 11.6078 10.3323 11.3207 11.3517 11.3207C11.4004 11.3207 11.8151 11.3928 12.5956 11.537L12.8151 11.4649C13.059 11.2726 13.3774 11.1044 13.7704 10.9602C14.1633 10.8159 14.5427 10.7438 14.9086 10.7438C15.4046 10.7438 15.8802 10.84 16.3353 11.0323C16.7904 11.2245 17.126 11.4866 17.3421 11.8184C17.3854 11.8184 17.4178 11.8303 17.4393 11.854C17.4609 11.8777 17.4933 11.8895 17.5366 11.8895C18.1416 11.9369 18.7054 12.1264 19.2281 12.4579C19.7508 12.7894 20.1149 13.2622 20.3203 13.8764C20.39 14.2072 20.4248 14.5141 20.4248 14.7972C20.4248 15.0803 20.376 15.3636 20.2785 15.6471C20.2785 15.6951 20.3029 15.7913 20.3517 15.9355C20.6443 16.272 20.8882 16.6377 21.0834 17.0327C21.2785 17.4277 21.376 17.8343 21.376 18.2525C21.376 18.4864 21.2541 18.9445 21.0102 19.6266C20.9614 19.7182 20.9614 19.8338 21.0102 19.9734C21.059 20.1657 21.0834 20.5474 21.0834 21.1186C21.0834 22.1027 20.6641 22.9387 19.8256 23.6268C18.9871 24.3148 17.9885 24.6588 16.8297 24.6588H11.4064ZM60.4369 24.5161C58.8841 24.5161 57.559 23.9697 56.4614 22.8769C55.3638 21.7841 54.8151 20.4704 54.8151 18.9358C54.8151 18.3777 54.9014 17.8579 55.074 17.3765C55.2466 16.895 55.4774 16.4147 55.7663 15.9355L53.7175 14.2049C53.2785 13.7723 53.2053 13.2916 53.498 12.7628C53.7907 12.234 54.2187 11.9696 54.7821 11.9696H60.4158C61.9948 11.9696 63.3342 12.5133 64.4339 13.6006C65.5335 14.6879 66.0834 15.9949 66.0834 17.5218V18.9368C66.0834 20.4932 65.5305 21.8121 64.4247 22.8937C63.319 23.9753 61.9897 24.5161 60.4369 24.5161ZM0.449219 38V33.2794C0.449219 31.152 1.54556 29.4361 3.73824 28.1315C5.93093 26.8269 8.79551 26.1746 12.332 26.1746H13.1815C13.425 26.1746 13.6931 26.192 13.9858 26.227C13.5468 27.1535 13.1931 28.1311 12.9248 29.16C12.6565 30.1889 12.5224 31.2848 12.5224 32.4478V38H0.449219ZM18.0102 38V32.4478C18.0102 29.0265 19.7123 26.2844 23.1166 24.2215C26.5208 22.1586 30.9617 21.1271 36.4391 21.1271C42.0068 21.1271 46.4736 22.1586 49.8395 24.2215C53.2053 26.2844 54.8882 29.0265 54.8882 32.4478V38H18.0102ZM60.5956 26.1746C64.1907 26.1746 67.0651 26.8246 69.2187 28.1248C71.3724 29.4249 72.4492 31.1544 72.4492 33.3131V38H60.376V32.4169C60.376 31.2727 60.2541 30.1882 60.0102 29.1634C59.7663 28.1385 59.4248 27.1597 58.9858 26.227C59.2785 26.192 59.553 26.1746 59.8095 26.1746H60.5956Z" fill="#1E1D1D"/>
</svg>
