<svg width="112" height="121" viewBox="0 0 112 121" fill="none" xmlns="http://www.w3.org/2000/svg">
<g id="Group 44644">
<rect id="Rectangle 14911" x="45.1396" y="45.8237" width="17.7824" height="17.7824" fill="#58A65C"/>
<g id="Group">
<g id="Group_2">
<path id="Vector" d="M25.7581 73.2122C14.705 73.2122 5.74219 82.175 5.74219 93.2281C5.74219 104.281 14.705 113.244 25.7581 113.244C36.8112 113.244 45.774 104.281 45.774 93.2281C45.774 82.175 36.8112 73.2122 25.7581 73.2122ZM25.7581 108.574C17.2842 108.574 10.4117 101.702 10.4117 93.2281C10.4117 84.7542 17.2842 77.8816 25.7581 77.8816C34.232 77.8816 41.1045 84.7542 41.1045 93.2281C41.1045 101.702 34.232 108.574 25.7581 108.574Z" fill="#E9E9E9"/>
<path id="Vector_2" d="M26.0266 98.6013C28.8459 98.6013 31.1313 96.3158 31.1313 93.4966C31.1313 90.6773 28.8459 88.3918 26.0266 88.3918C23.2073 88.3918 20.9219 90.6773 20.9219 93.4966C20.9219 96.3158 23.2073 98.6013 26.0266 98.6013Z" fill="#58A65C"/>
<path id="Vector_3" d="M70.3577 1.34302V15.9748C70.3577 17.6889 68.9713 19.0752 67.2572 19.0752H31.1318V24.986H76.2684V1.34302H70.3577Z" fill="#E9E9E9"/>
<path id="Vector_4" d="M106.897 86.7798V99.7673C106.897 100.901 105.978 101.825 104.839 101.825H81.1045V105.587H110.658V86.7798H106.897Z" fill="#E9E9E9"/>
<path id="Vector_5" d="M64.4473 86.7798V99.7673C64.4473 100.901 63.5285 101.825 62.3893 101.825H48.3271V105.587H68.2087V86.7798H64.4473Z" fill="#E9E9E9"/>
<path id="Vector_6" d="M100.449 45.4048V58.3923C100.449 59.5261 99.5305 60.4503 98.3913 60.4503H86.4785V64.2117H104.211V45.4048H100.449Z" fill="#E9E9E9"/>
<path id="Vector_7" d="M17.6984 45.4048V58.3923C17.6984 59.5261 16.7795 60.4503 15.6404 60.4503H3.72754V64.2117H21.4598V45.4048H17.6984Z" fill="#E9E9E9"/>
</g>
<g id="Group_3">
<g id="Group_4">
<path id="Vector_8" d="M25.7569 113.916C14.3492 113.916 5.06934 104.636 5.06934 93.2284C5.06934 81.8206 14.3492 72.5408 25.7569 72.5408C37.1646 72.5408 46.4445 81.8206 46.4445 93.2284C46.4445 104.636 37.1646 113.916 25.7569 113.916ZM25.7569 74.6901C15.5367 74.6901 7.2187 83.0082 7.2187 93.2284C7.2187 103.449 15.5367 111.767 25.7569 111.767C35.9771 111.767 44.2952 103.449 44.2952 93.2284C44.2952 83.0082 35.9771 74.6901 25.7569 74.6901Z" fill="#3D5A80"/>
<path id="Vector_9" d="M25.7566 99.4079C22.3498 99.4079 19.5771 96.6352 19.5771 93.2285C19.5771 89.8217 22.3498 87.0491 25.7566 87.0491C29.1633 87.0491 31.936 89.8217 31.936 93.2285C31.936 96.6352 29.1633 99.4079 25.7566 99.4079ZM25.7566 89.1984C23.532 89.1984 21.7265 91.0039 21.7265 93.2285C21.7265 95.4531 23.532 97.2585 25.7566 97.2585C27.9811 97.2585 29.7866 95.4531 29.7866 93.2285C29.7866 91.0039 27.9811 89.1984 25.7566 89.1984Z" fill="#3D5A80"/>
<path id="Vector_10" d="M7.60617 113.401C7.33213 113.401 7.05809 113.293 6.84852 113.084C6.4294 112.664 6.4294 111.982 6.84852 111.563L10.8356 107.576C11.2547 107.157 11.9371 107.157 12.3563 107.576C12.7754 107.995 12.7754 108.677 12.3563 109.096L8.3692 113.084C8.15964 113.293 7.8856 113.401 7.61155 113.401H7.60617Z" fill="#3D5A80"/>
<path id="Vector_11" d="M6.44539 120.332C6.17135 120.332 5.89731 120.225 5.68774 120.015C5.26862 119.596 5.26862 118.914 5.68774 118.494L8.48192 115.7L4.6292 111.847L1.83503 114.642C1.4159 115.061 0.733469 115.061 0.314344 114.642C-0.104781 114.223 -0.104781 113.54 0.314344 113.121L4.62382 108.806L11.5179 115.7L7.20305 120.01C6.99348 120.219 6.71944 120.327 6.44539 120.327V120.332Z" fill="#3D5A80"/>
</g>
<path id="Vector_12" d="M76.2563 25.7923H31.1412C30.3943 25.7923 29.7871 25.1851 29.7871 24.4382V1.35407C29.7871 0.607172 30.3943 0 31.1412 0H76.2563C77.0032 0 77.6104 0.607172 77.6104 1.35407V24.4382C77.6104 25.1851 77.0032 25.7923 76.2563 25.7923ZM31.9365 23.643H75.461V2.14936H31.9365V23.643Z" fill="#3D5A80"/>
<path id="Vector_13" d="M110.646 106.931H81.1138C80.3669 106.931 79.7598 106.324 79.7598 105.577V87.3287C79.7598 86.5818 80.3669 85.9746 81.1138 85.9746H110.646C111.393 85.9746 112 86.5818 112 87.3287V105.577C112 106.324 111.393 106.931 110.646 106.931ZM81.9091 104.782H109.851V88.124H81.9091V104.782Z" fill="#3D5A80"/>
<path id="Vector_14" d="M68.2081 106.931H48.5952C48.0041 106.931 47.5205 106.447 47.5205 105.856C47.5205 105.265 48.0041 104.782 48.5952 104.782H67.4021V88.124H51.2819C50.6908 88.124 50.2072 87.6404 50.2072 87.0493C50.2072 86.4582 50.6908 85.9746 51.2819 85.9746H68.2081C68.9496 85.9746 69.5514 86.5764 69.5514 87.318V105.588C69.5514 106.329 68.9496 106.931 68.2081 106.931Z" fill="#3D5A80"/>
<path id="Vector_15" d="M62.5979 65.0183H45.3439C44.4735 65.0183 43.7588 64.309 43.7588 63.4331V46.1792C43.7588 45.3087 44.4681 44.594 45.3439 44.594H62.5979C63.4684 44.594 64.1831 45.3033 64.1831 46.1792V63.4331C64.1831 64.3036 63.4738 65.0183 62.5979 65.0183ZM45.9135 62.8689H62.0337V46.7487H45.9135V62.8689Z" fill="#3D5A80"/>
<path id="Vector_16" d="M103.973 65.0183H86.7189C85.8484 65.0183 85.1338 64.309 85.1338 63.4331V46.1792C85.1338 45.3087 85.8431 44.594 86.7189 44.594H103.973C104.843 44.594 105.558 45.3033 105.558 46.1792V63.4331C105.558 64.3036 104.849 65.0183 103.973 65.0183ZM87.2885 62.8689H103.409V46.7487H87.2885V62.8689Z" fill="#3D5A80"/>
<path id="Vector_17" d="M21.222 65.0183H3.96797C3.09748 65.0183 2.38281 64.309 2.38281 63.4331V46.1792C2.38281 45.3087 3.09211 44.594 3.96797 44.594H21.222C22.0924 44.594 22.8071 45.3033 22.8071 46.1792V63.4331C22.8071 64.3036 22.0978 65.0183 21.222 65.0183ZM4.53755 62.8689H20.6578V46.7487H4.53755V62.8689Z" fill="#3D5A80"/>
<path id="Vector_18" d="M53.9673 46.7487C53.3762 46.7487 52.8926 46.2651 52.8926 45.674V24.7177C52.8926 24.1267 53.3762 23.6431 53.9673 23.6431C54.5583 23.6431 55.0419 24.1267 55.0419 24.7177V45.674C55.0419 46.2651 54.5583 46.7487 53.9673 46.7487Z" fill="#3D5A80"/>
<path id="Vector_19" d="M53.9673 87.049C53.3762 87.049 52.8926 86.5654 52.8926 85.9743V64.4807C52.8926 63.8896 53.3762 63.406 53.9673 63.406C54.5583 63.406 55.0419 63.8896 55.0419 64.4807V85.9743C55.0419 86.5654 54.5583 87.049 53.9673 87.049Z" fill="#3D5A80"/>
<path id="Vector_20" d="M95.8794 87.049C95.2883 87.049 94.8047 86.5654 94.8047 85.9743V64.4807C94.8047 63.8896 95.2883 63.406 95.8794 63.406C96.4704 63.406 96.954 63.8896 96.954 64.4807V85.9743C96.954 86.5654 96.4704 87.049 95.8794 87.049Z" fill="#3D5A80"/>
<path id="Vector_21" d="M44.8319 55.8832H23.3384C22.7473 55.8832 22.2637 55.3996 22.2637 54.8086C22.2637 54.2175 22.7473 53.7339 23.3384 53.7339H44.8319C45.423 53.7339 45.9066 54.2175 45.9066 54.8086C45.9066 55.3996 45.423 55.8832 44.8319 55.8832Z" fill="#3D5A80"/>
<path id="Vector_22" d="M85.6699 55.8832H64.1762C63.5852 55.8832 63.1016 55.3996 63.1016 54.8086C63.1016 54.2175 63.5852 53.7339 64.1762 53.7339H85.6699C86.2609 53.7339 86.7445 54.2175 86.7445 54.8086C86.7445 55.3996 86.2609 55.8832 85.6699 55.8832Z" fill="#3D5A80"/>
<path id="Vector_23" d="M79.2234 97.2587H69.5512C68.9602 97.2587 68.4766 96.7751 68.4766 96.1841C68.4766 95.593 68.9602 95.1094 69.5512 95.1094H79.2234C79.8145 95.1094 80.2981 95.593 80.2981 96.1841C80.2981 96.7751 79.8145 97.2587 79.2234 97.2587Z" fill="#3D5A80"/>
</g>
</g>
</g>
</svg>
