<svg width="114" height="113" viewBox="0 0 114 113" fill="none" xmlns="http://www.w3.org/2000/svg">
<g id="Group 44645">
<path id="Vector 16" d="M82.7322 106.751H29.3564V112.979H82.7322V106.751Z" fill="#5383EC"/>
<g id="Group">
<g id="Group_2">
<path id="Vector" d="M37.6557 31.7237C39.5075 31.7237 41.0086 30.2225 41.0086 28.3708C41.0086 26.519 39.5075 25.0178 37.6557 25.0178C35.8039 25.0178 34.3027 26.519 34.3027 28.3708C34.3027 30.2225 35.8039 31.7237 37.6557 31.7237Z" fill="#5383EC"/>
<path id="Vector_2" d="M55.1938 48.2308C57.0455 48.2308 58.5467 46.7296 58.5467 44.8778C58.5467 43.0261 57.0455 41.5249 55.1938 41.5249C53.342 41.5249 51.8408 43.0261 51.8408 44.8778C51.8408 46.7296 53.342 48.2308 55.1938 48.2308Z" fill="#5383EC"/>
<path id="Vector_3" d="M106.169 12.6587C107.046 14.1753 107.557 15.9343 107.557 17.8119V68.333C107.557 74.0381 102.93 78.6652 97.2245 78.6652H5.95233C4.80717 78.6652 3.70843 78.4692 2.67676 78.1287C4.46155 81.2238 7.79386 83.3077 11.6265 83.3077H102.899C108.604 83.3077 113.231 78.6807 113.231 72.9755V22.4544C113.231 17.8944 110.27 14.0308 106.169 12.6587Z" fill="#E9E9E9"/>
</g>
<g id="Group_3">
<path id="Vector_4" d="M102.373 84.0814H11.627C5.21512 84.0814 0 78.8663 0 72.4544V22.4389C0 16.0373 5.22544 10.8325 11.6476 10.8325H79.4389C80.0063 10.8325 80.4706 11.2968 80.4706 11.8642C80.4706 12.4316 80.0063 12.8959 79.4389 12.8959H11.6476C6.36028 12.8959 2.06335 17.1773 2.06335 22.4389V72.4544C2.06335 77.7263 6.35512 82.018 11.627 82.018H102.373C107.645 82.018 111.937 77.7263 111.937 72.4544V22.4389C111.937 17.1773 107.64 12.8959 102.352 12.8959H99.0407C98.4733 12.8959 98.0091 12.4316 98.0091 11.8642C98.0091 11.2968 98.4733 10.8325 99.0407 10.8325H102.352C108.775 10.8325 114 16.0373 114 22.4389V72.4544C114 78.8663 108.785 84.0814 102.373 84.0814Z" fill="#3D5A80"/>
<path id="Vector_5" d="M101.62 69.6378H1.03167C0.464253 69.6378 0 69.1736 0 68.6061C0 68.0387 0.464253 67.5745 1.03167 67.5745H101.62C102.187 67.5745 102.652 68.0387 102.652 68.6061C102.652 69.1736 102.187 69.6378 101.62 69.6378Z" fill="#3D5A80"/>
<path id="Vector_6" d="M83.0506 112.968H28.8877V106.67C28.8877 105.948 29.2539 105.282 29.8626 104.895L38.3636 99.4791C41.1543 97.6994 42.8153 94.6663 42.8153 91.3598V89.2397C42.8153 88.6723 43.2795 88.208 43.847 88.208C44.4144 88.208 44.8786 88.6723 44.8786 89.2397V91.3598C44.8786 95.3782 42.8566 99.0612 39.4675 101.223L30.9665 106.639L30.951 110.91H80.9821V106.68L72.4759 101.238C69.0817 99.0767 67.0545 95.3781 67.0545 91.3546V89.25C67.0545 88.6826 67.5187 88.2183 68.0862 88.2183C68.6536 88.2183 69.1178 88.6826 69.1178 89.25V91.3546C69.1178 94.6714 70.7892 97.7149 73.585 99.4997L82.0654 104.906C82.674 105.298 83.0403 105.958 83.0403 106.685V112.979L83.0506 112.968Z" fill="#3D5A80"/>
<path id="Vector_7" d="M99.5565 7.73756C98.989 7.73756 98.5248 7.2733 98.5248 6.70588V2.06335H93.8823C93.3148 2.06335 92.8506 1.59909 92.8506 1.03167C92.8506 0.464253 93.3148 0 93.8823 0H100.588V6.70588C100.588 7.2733 100.124 7.73756 99.5565 7.73756Z" fill="#3D5A80"/>
<path id="Vector_8" d="M37.9141 33.5294C35.2111 33.5294 33.0137 31.332 33.0137 28.629C33.0137 25.926 35.2111 23.7285 37.9141 23.7285C40.6171 23.7285 42.8146 25.926 42.8146 28.629C42.8146 31.332 40.6171 33.5294 37.9141 33.5294ZM37.9141 25.7919C36.3511 25.7919 35.077 27.066 35.077 28.629C35.077 30.192 36.3511 31.4661 37.9141 31.4661C39.4771 31.4661 40.7512 30.192 40.7512 28.629C40.7512 27.066 39.4771 25.7919 37.9141 25.7919Z" fill="#3D5A80"/>
<path id="Vector_9" d="M55.4532 50.0363C52.7502 50.0363 50.5527 47.8388 50.5527 45.1358C50.5527 42.4328 52.7502 40.2354 55.4532 40.2354C58.1562 40.2354 60.3536 42.4328 60.3536 45.1358C60.3536 47.8388 58.1562 50.0363 55.4532 50.0363ZM55.4532 42.2987C53.8902 42.2987 52.6161 43.5728 52.6161 45.1358C52.6161 46.6988 53.8902 47.9729 55.4532 47.9729C57.0162 47.9729 58.2903 46.6988 58.2903 45.1358C58.2903 43.5728 57.0162 42.2987 55.4532 42.2987Z" fill="#3D5A80"/>
<path id="Vector_10" d="M58.2889 43.1962C58.0258 43.1962 57.7627 43.093 57.5615 42.8918C57.1592 42.4895 57.1592 41.8344 57.5615 41.432L95.8624 3.13111C96.2648 2.72876 96.9199 2.72876 97.3222 3.13111C97.7246 3.53346 97.7246 4.18859 97.3222 4.59094L59.0214 42.8918C58.8202 43.093 58.5571 43.1962 58.294 43.1962H58.2889Z" fill="#3D5A80"/>
<path id="Vector_11" d="M52.1562 43.8566C51.8932 43.8566 51.6352 43.7586 51.4341 43.5574L40.4622 32.7506C40.0547 32.3483 40.0495 31.6983 40.4519 31.2908C40.8542 30.8833 41.5042 30.8782 41.9117 31.2805L52.8836 42.0873C53.2911 42.4896 53.2962 43.1396 52.8939 43.5471C52.6927 43.7534 52.4245 43.8566 52.1614 43.8566H52.1562Z" fill="#3D5A80"/>
<path id="Vector_12" d="M13.0809 54.235C12.8178 54.235 12.5547 54.1318 12.3535 53.9306C11.9512 53.5283 11.9512 52.8731 12.3535 52.4708L33.4513 31.3731C33.8536 30.9707 34.5087 30.9707 34.9111 31.3731C35.3134 31.7754 35.3134 32.4305 34.9111 32.8329L13.8133 53.9306C13.6122 54.1318 13.3491 54.235 13.086 54.235H13.0809Z" fill="#3D5A80"/>
<path id="Vector_13" d="M20.6332 58.8055C20.0658 58.8055 19.6016 58.3412 19.6016 57.7738V46.9155C19.6016 46.348 20.0658 45.8838 20.6332 45.8838C21.2007 45.8838 21.6649 46.348 21.6649 46.9155V57.7738C21.6649 58.3412 21.2007 58.8055 20.6332 58.8055Z" fill="#3D5A80"/>
<path id="Vector_14" d="M28.8871 58.8056C28.3197 58.8056 27.8555 58.3413 27.8555 57.7739V38.4868C27.8555 37.9193 28.3197 37.4551 28.8871 37.4551C29.4546 37.4551 29.9188 37.9193 29.9188 38.4868V57.7739C29.9188 58.3413 29.4546 58.8056 28.8871 58.8056Z" fill="#3D5A80"/>
<path id="Vector_15" d="M37.6557 58.8057C37.0883 58.8057 36.624 58.3414 36.624 57.774V32.498C36.624 31.9306 37.0883 31.4663 37.6557 31.4663C38.2231 31.4663 38.6874 31.9306 38.6874 32.498V57.774C38.6874 58.3414 38.2231 58.8057 37.6557 58.8057Z" fill="#3D5A80"/>
<path id="Vector_16" d="M46.4252 58.8053C45.8578 58.8053 45.3936 58.341 45.3936 57.7736V37.6559C45.3936 37.0885 45.8578 36.6243 46.4252 36.6243C46.9926 36.6243 47.4569 37.0885 47.4569 37.6559V57.7736C47.4569 58.341 46.9926 58.8053 46.4252 58.8053Z" fill="#3D5A80"/>
<path id="Vector_17" d="M55.1948 58.8056C54.6273 58.8056 54.1631 58.3413 54.1631 57.7739V50.5522C54.1631 49.9848 54.6273 49.5205 55.1948 49.5205C55.7622 49.5205 56.2264 49.9848 56.2264 50.5522V57.7739C56.2264 58.3413 55.7622 58.8056 55.1948 58.8056Z" fill="#3D5A80"/>
<path id="Vector_18" d="M63.9633 58.8053C63.3959 58.8053 62.9316 58.341 62.9316 57.7736V37.6559C62.9316 37.0885 63.3959 36.6243 63.9633 36.6243C64.5307 36.6243 64.995 37.0885 64.995 37.6559V57.7736C64.995 58.341 64.5307 58.8053 63.9633 58.8053Z" fill="#3D5A80"/>
<path id="Vector_19" d="M72.7338 58.8054C72.1664 58.8054 71.7021 58.3412 71.7021 57.7737V28.371C71.7021 27.8036 72.1664 27.3394 72.7338 27.3394C73.3012 27.3394 73.7655 27.8036 73.7655 28.371V57.7737C73.7655 58.3412 73.3012 58.8054 72.7338 58.8054Z" fill="#3D5A80"/>
<path id="Vector_20" d="M81.5014 58.8055C80.934 58.8055 80.4697 58.3413 80.4697 57.7739V19.6535C80.4697 19.0861 80.934 18.6218 81.5014 18.6218C82.0688 18.6218 82.5331 19.0861 82.5331 19.6535V57.7739C82.5331 58.3413 82.0688 58.8055 81.5014 58.8055Z" fill="#3D5A80"/>
<path id="Vector_21" d="M89.7563 58.8054C89.1889 58.8054 88.7246 58.3411 88.7246 57.7737V11.8642C88.7246 11.2968 89.1889 10.8325 89.7563 10.8325C90.3237 10.8325 90.788 11.2968 90.788 11.8642V57.7737C90.788 58.3411 90.3237 58.8054 89.7563 58.8054Z" fill="#3D5A80"/>
</g>
</g>
</g>
</svg>
