<svg width="115" height="114" viewBox="0 0 115 114" fill="none" xmlns="http://www.w3.org/2000/svg">
<g id="Group">
<g id="Group_2">
<path id="Vector" d="M106.02 14.2651C106.887 15.7651 107.392 17.5049 107.392 19.3621V69.3316C107.392 74.9744 102.816 79.551 97.1729 79.551H6.89215C5.75949 79.551 4.67275 79.3571 3.65234 79.0204C5.41765 82.0816 8.71868 84.1428 12.5044 84.1428H102.78C108.423 84.1428 112.999 79.5663 112.999 73.9234V23.9539C112.999 19.4437 110.071 15.6223 106.015 14.2651H106.02Z" fill="#E9E9E9"/>
<path id="Vector_2" d="M68.6117 84.6683V92.4337C68.6117 96.6888 70.9331 100.607 74.6627 102.653L80.2954 105.74C81.2699 106.276 81.877 107.301 81.8719 108.413L81.8617 112.714H57.3821L57.127 84.1428L68.6066 84.6683H68.6117Z" fill="#E9E9E9"/>
<path id="Vector_3" d="M23.0049 2H90.2449C91.2602 2 92.0867 2.82654 92.0867 3.84185V12.7143H21.1631V3.84185C21.1631 2.82654 21.9896 2 23.0049 2Z" fill="#F1BF42"/>
</g>
<path id="Vector_4" d="M79.6892 60.9031C79.6892 59.8266 78.8219 58.9541 77.7453 58.9541H75.4443C74.0566 58.9541 72.8168 58.097 72.2912 56.8113C72.281 56.7806 72.2657 56.7551 72.2555 56.7245C71.73 55.4541 71.9902 53.9949 72.9545 53.0153L74.5668 51.3827C75.3117 50.6276 75.3117 49.4184 74.5668 48.6633L70.9647 44.9949C70.2045 44.2194 68.9596 44.2194 68.1943 44.9949L66.6688 46.5459C65.6892 47.5408 64.2096 47.8368 62.9239 47.2908C62.9035 47.2806 62.8882 47.2755 62.8678 47.2653C61.5973 46.7347 60.7759 45.4898 60.7759 44.1071V41.8418C60.7759 40.7704 59.9086 39.8979 58.8371 39.8979H53.9239C52.8473 39.8979 51.98 40.7653 51.9749 41.8367V44.2551C51.9749 45.6378 51.1228 46.8623 49.8473 47.3878C49.8116 47.4031 49.7759 47.4184 49.7402 47.4337C48.4698 47.9643 47.0055 47.6837 46.0259 46.7194L44.4034 45.1174C43.6483 44.3725 42.4289 44.3674 41.6687 45.1174L38.0004 48.7347C37.23 49.4949 37.2249 50.7449 38.0004 51.5051L39.5667 53.0459C40.5616 54.0255 40.8524 55.5102 40.3116 56.796C40.3014 56.8164 40.2963 56.8317 40.2861 56.8521C39.7555 58.1276 38.5106 58.9541 37.133 58.9541H34.8677C33.7912 58.9541 32.9238 59.8266 32.9238 60.898V63.9388H46.0412C46.0412 57.9184 50.6177 53.3623 56.2606 53.3419C65.8116 53.3112 66.48 63.6429 66.48 63.6429L79.7453 63.75L79.6841 60.9031H79.6892Z" fill="#F1BF42"/>
<g id="Group_3">
<path id="Vector_5" d="M21.3887 63.9387V3.29569C21.3887 2.69365 21.8785 2.20386 22.4805 2.20386H91.2153C91.8174 2.20386 92.3072 2.69365 92.3072 3.29569V63.9387" stroke="#3D5A80" stroke-width="3" stroke-miterlimit="10" stroke-linecap="round"/>
<path id="Vector_6" d="M27.5098 7.81616H29.0404" stroke="#3D5A80" stroke-width="3" stroke-miterlimit="10" stroke-linecap="round"/>
<path id="Vector_7" d="M35.1631 7.81616H36.6937" stroke="#3D5A80" stroke-width="3" stroke-miterlimit="10" stroke-linecap="round"/>
<path id="Vector_8" d="M42.8164 7.81616H44.347" stroke="#3D5A80" stroke-width="3" stroke-miterlimit="10" stroke-linecap="round"/>
<path id="Vector_9" d="M15.2653 13.4285H12.5C6.69899 13.4285 2 18.1121 2 23.8877V73.3571C2 79.1428 6.69389 83.8368 12.4796 83.8368H102.235C108.021 83.8368 112.714 79.1428 112.714 73.3571V23.8877C112.714 18.1121 108.015 13.4285 102.214 13.4285H97.9185" stroke="#3D5A80" stroke-width="3" stroke-miterlimit="10" stroke-linecap="round"/>
<path id="Vector_10" d="M2 69.5508H101.49" stroke="#3D5A80" stroke-width="3" stroke-miterlimit="10" stroke-linecap="round"/>
<path id="Vector_11" d="M44.3468 89.959V92.0559C44.3468 95.658 42.505 99.01 39.4693 100.949L31.0611 106.306C30.755 106.5 30.5713 106.837 30.5713 107.204V112.413H82.102V107.209C82.102 106.847 81.9183 106.505 81.6071 106.311L73.2142 100.964C70.1683 99.0202 68.3214 95.658 68.3214 92.0457V89.9641" stroke="#3D5A80" stroke-width="3" stroke-miterlimit="10" stroke-linecap="round"/>
<path id="Vector_12" d="M31.082 106.286H57.1025" stroke="#3D5A80" stroke-width="3" stroke-miterlimit="10" stroke-linecap="round"/>
<path id="Vector_13" d="M46.0752 63.9387C46.0752 58.1122 50.7997 53.3877 56.6262 53.3877C62.4528 53.3877 67.1773 58.1122 67.1773 63.9387" stroke="#3D5A80" stroke-width="3" stroke-miterlimit="10" stroke-linecap="round"/>
<path id="Vector_14" d="M79.5524 63.9386V60.7702C79.5524 59.7039 78.6952 58.8366 77.6289 58.8366H75.3074C73.9401 58.8366 72.7411 57.9845 72.2207 56.7243C72.2105 56.7039 72.2054 56.6835 72.1952 56.658C71.6646 55.3876 71.9146 53.9284 72.884 52.9539L74.4809 51.3467C75.2309 50.5916 75.2309 49.3774 74.4809 48.6223L70.8636 44.9794C70.1085 44.2192 68.8789 44.2192 68.1238 44.9794L66.486 46.6223C65.537 47.5763 64.1136 47.8212 62.8789 47.3008C62.8585 47.2906 62.838 47.2804 62.8125 47.2753C61.5319 46.7447 60.6697 45.5253 60.6697 44.1375V41.8876C60.6697 40.8212 59.8074 39.959 58.7411 39.959H53.3584C52.3278 39.959 51.4911 40.7957 51.4911 41.8263V44.2651C51.4911 45.5865 50.6952 46.7804 49.4707 47.2855L49.2513 47.3774C48.0268 47.8825 46.6186 47.6019 45.685 46.6682L44.0013 44.9896C43.2768 44.2651 42.0982 44.26 41.3686 44.9845L37.6237 48.6835C36.889 49.4131 36.8839 50.6019 37.6186 51.3366L39.3584 53.0712C40.2768 53.9896 40.5166 55.3723 40.0064 56.5662C39.9758 56.6325 39.9502 56.6988 39.9247 56.7651C39.4145 58.0049 38.2309 58.8366 36.8839 58.8315H34.5625C33.4911 58.8264 32.6186 59.6937 32.6186 60.7651L32.6084 63.9335" stroke="#3D5A80" stroke-width="3" stroke-miterlimit="10" stroke-linecap="round"/>
<g id="Group_4">
<g id="Group_5">
<path id="Vector_15" d="M35.1641 34.3468V24.6019C35.1641 22.2652 37.0569 20.3723 39.3937 20.3723H39.6028C41.9396 20.3723 43.8324 22.2652 43.8324 24.6019V34.3468" stroke="#3D5A80" stroke-width="3" stroke-miterlimit="10" stroke-linecap="round"/>
<path id="Vector_16" d="M35.1641 28.7344H43.8375" stroke="#3D5A80" stroke-width="3" stroke-miterlimit="10" stroke-linecap="round"/>
</g>
<g id="Group_6">
<path id="Vector_17" d="M52.5098 20.5713H60.321C62.4333 20.5713 64.1475 22.2856 64.1475 24.3978C64.1475 26.5101 62.4333 28.2244 60.321 28.2244H56.0812" stroke="#3D5A80" stroke-width="3" stroke-miterlimit="10" stroke-linecap="round"/>
<path id="Vector_18" d="M56.082 20.5713V34.857" stroke="#3D5A80" stroke-width="3" stroke-miterlimit="10" stroke-linecap="round"/>
</g>
<path id="Vector_19" d="M74.959 34.3468V20.5713" stroke="#3D5A80" stroke-width="3" stroke-miterlimit="10" stroke-linecap="round"/>
</g>
</g>
</g>
</svg>
