<svg width="67" height="67" viewBox="0 0 67 67" fill="none" xmlns="http://www.w3.org/2000/svg">
<g id="vuesax/outline/moneys">
<path id="Vector" d="M32.4136 50.2055C30.0873 50.2055 27.8774 49.8208 25.7838 49.0514C23.6902 48.2819 21.7845 47.2172 20.0667 45.8573L14.9669 50.9571L11.4238 47.4141L16.5236 42.3143C15.1637 40.5964 14.099 38.6907 13.3295 36.5971C12.5601 34.5035 12.1754 32.2936 12.1754 29.9673C12.1754 24.3307 14.1481 19.5485 18.0934 15.6208C22.0387 11.693 26.8121 9.72916 32.4136 9.72916L52.6518 9.72916L52.6518 29.9673C52.6518 35.5688 50.6879 40.3422 46.7601 44.2875C42.8324 48.2329 38.0502 50.2055 32.4136 50.2055ZM29.3486 41.194L41.2711 30.5579C41.629 30.2 41.7274 29.7795 41.5664 29.2963C41.4053 28.8132 41.0743 28.5358 40.5733 28.4642L31.2862 27.5516L36.8692 19.9024C36.9766 19.6911 37.0302 19.4799 37.0302 19.2689C37.0302 19.0579 36.9408 18.8646 36.7618 18.689C36.5829 18.5135 36.3682 18.4257 36.1176 18.4257C35.8671 18.4257 35.6544 18.5129 35.4795 18.6873L23.5976 29.3353C23.212 29.6851 23.0997 30.1016 23.2608 30.5847C23.4218 31.0678 23.7707 31.3273 24.3076 31.3631L33.6483 32.3294L28.0085 39.9695C27.8674 40.1806 27.8058 40.3916 27.8237 40.6024C27.8416 40.8131 27.9401 40.9901 28.119 41.1332C28.2621 41.348 28.459 41.4553 28.7095 41.4553C28.96 41.4553 29.1731 41.3682 29.3486 41.194Z" fill="url(#paint0_radial_608_1184)"/>
</g>
<defs>
<radialGradient id="paint0_radial_608_1184" cx="0" cy="0" r="1" gradientUnits="userSpaceOnUse" gradientTransform="translate(52.6518 24.805) rotate(146.926) scale(51.7497 371.921)">
<stop stop-color="#0072F0"/>
<stop offset="1" stop-color="#1DD9CF"/>
</radialGradient>
</defs>
</svg>
